<?xml version="1.0" encoding="UTF-8" standalone="no"?>
<svg
   xmlns:dc="http://purl.org/dc/elements/1.1/"
   xmlns:cc="http://creativecommons.org/ns#"
   xmlns:rdf="http://www.w3.org/1999/02/22-rdf-syntax-ns#"
   xmlns:svg="http://www.w3.org/2000/svg"
   xmlns="http://www.w3.org/2000/svg"
   xmlns:sodipodi="http://sodipodi.sourceforge.net/DTD/sodipodi-0.dtd"
   xmlns:inkscape="http://www.inkscape.org/namespaces/inkscape"
   version="1.1"
   viewBox="0 0 24 24"
   id="svg10"
   sodipodi:docname="Codeforces.colored.svg"
   inkscape:version="1.0.1 (3bc2e813f5, 2020-09-07)">
  <metadata
     id="metadata16">
    <rdf:RDF>
      <cc:Work
         rdf:about="">
        <dc:format>image/svg+xml</dc:format>
        <dc:type
           rdf:resource="http://purl.org/dc/dcmitype/StillImage" />
      </cc:Work>
    </rdf:RDF>
  </metadata>
  <defs
     id="defs14" />
  <sodipodi:namedview
     pagecolor="#ffffff"
     bordercolor="#666666"
     borderopacity="1"
     objecttolerance="10"
     gridtolerance="10"
     guidetolerance="10"
     inkscape:pageopacity="0"
     inkscape:pageshadow="2"
     inkscape:window-width="948"
     inkscape:window-height="1027"
     id="namedview12"
     showgrid="false"
     showguides="true"
     inkscape:guide-bbox="true"
     inkscape:zoom="18.475773"
     inkscape:cx="11.795926"
     inkscape:cy="16.919609"
     inkscape:window-x="964"
     inkscape:window-y="8"
     inkscape:window-maximized="0"
     inkscape:current-layer="svg10"
     inkscape:document-rotation="0" />
  <style
     type="text/css"
     id="style2">
		.st0{fill:#AE0F0A;}
		.st1{fill:#4F81C1;}
		.st2{fill:#FFD400;}
	</style>
  <path
     class="st0"
     d="m 20.789455,10.5 c 0.8,0 1.5,0.7 1.5,1.5 v 7.5 c 0,0.8 -0.7,1.5 -1.5,1.5 h -3 c -0.8,0 -1.5,-0.7 -1.5,-1.5 V 12 c 0,-0.8 0.7,-1.5 1.5,-1.5 z"
     id="path4" />
  <path
     class="st1"
     d="M 13.5,3 C 14.3,3 15,3.7 15,4.5 v 15 c 0,0.8 -0.7,1.5 -1.5,1.5 h -3 C 9.7,21 9,20.3 9,19.5 V 4.5 C 9,3.7 9.7,3 10.5,3 Z"
     id="path6" />
  <path
     class="st2"
     d="m 5.9341989,7.5 c 0.8,0 1.5,0.7 1.5,1.5 v 10.5 c 0,0.8 -0.7,1.5 -1.5,1.5 h -3 c -0.8,0 -1.5,-0.7 -1.5,-1.5 V 9 c 0,-0.8 0.7,-1.5 1.5,-1.5 z"
     id="path8" />
</svg>
