<?xml version="1.0" encoding="UTF-8" standalone="no"?>
<svg
   xmlns:dc="http://purl.org/dc/elements/1.1/"
   xmlns:cc="http://creativecommons.org/ns#"
   xmlns:rdf="http://www.w3.org/1999/02/22-rdf-syntax-ns#"
   xmlns:svg="http://www.w3.org/2000/svg"
   xmlns="http://www.w3.org/2000/svg"
   xmlns:sodipodi="http://sodipodi.sourceforge.net/DTD/sodipodi-0.dtd"
   xmlns:inkscape="http://www.inkscape.org/namespaces/inkscape"
   width="24px"
   height="24px"
   viewBox="0 0 24 24"
   role="img"
   version="1.1"
   id="svg6"
   sodipodi:docname="hackerearth.svg"
   inkscape:version="1.0.1 (3bc2e813f5, 2020-09-07)">
  <metadata
     id="metadata12">
    <rdf:RDF>
      <cc:Work
         rdf:about="">
        <dc:format>image/svg+xml</dc:format>
        <dc:type
           rdf:resource="http://purl.org/dc/dcmitype/StillImage" />
      </cc:Work>
    </rdf:RDF>
  </metadata>
  <defs
     id="defs10" />
  <sodipodi:namedview
     pagecolor="#ffffff"
     bordercolor="#666666"
     borderopacity="1"
     objecttolerance="10"
     gridtolerance="10"
     guidetolerance="10"
     inkscape:pageopacity="0"
     inkscape:pageshadow="2"
     inkscape:window-width="1904"
     inkscape:window-height="1027"
     id="namedview8"
     showgrid="false"
     inkscape:zoom="30.548417"
     inkscape:cx="12.45444"
     inkscape:cy="13.029122"
     inkscape:window-x="8"
     inkscape:window-y="8"
     inkscape:window-maximized="0"
     inkscape:current-layer="svg6" />
  <title
     id="title2">HackerEarth icon</title>
  <path
     d="M20.983.002H9.508v6.494h.11a3.629 3.629 0 0 1 3.557-1.332l-.023-.004c1.966.144 3.91 1.336 4.02 5.158v7.554a.299.299 0 0 1-.287.287h-2.11a.287.287 0 0 1-.287-.287V10.55c0-1.778-.585-3.114-2.341-3.114h-.038a2.606 2.606 0 0 0-2.6 2.78v-.008 7.665a.287.287 0 0 1-.287.287H7.124a.287.287 0 0 1-.287-.287V.004H3.193L3.126.003c-.823 0-1.493.652-1.523 1.468V22.458c.03.857.73 1.541 1.59 1.546h17.792a1.458 1.458 0 0 0 1.413-1.55v.004V1.474A1.38 1.38 0 0 0 21.021.005l-.038.001h.002zm-2.54 20.983H5.555V19.66h12.888z"
     id="path4"
     style="fill:#2c3454;fill-opacity:1" />
</svg>
