<?xml version="1.0" encoding="UTF-8" standalone="no"?>
<svg
   xmlns:dc="http://purl.org/dc/elements/1.1/"
   xmlns:cc="http://creativecommons.org/ns#"
   xmlns:rdf="http://www.w3.org/1999/02/22-rdf-syntax-ns#"
   xmlns:svg="http://www.w3.org/2000/svg"
   xmlns="http://www.w3.org/2000/svg"
   xmlns:sodipodi="http://sodipodi.sourceforge.net/DTD/sodipodi-0.dtd"
   xmlns:inkscape="http://www.inkscape.org/namespaces/inkscape"
   role="img"
   viewBox="0 0 24 24"
   version="1.1"
   id="svg6"
   sodipodi:docname="codeforces.svg"
   inkscape:version="1.0.1 (3bc2e813f5, 2020-09-07)">
  <metadata
     id="metadata12">
    <rdf:RDF>
      <cc:Work
         rdf:about="">
        <dc:format>image/svg+xml</dc:format>
        <dc:type
           rdf:resource="http://purl.org/dc/dcmitype/StillImage" />
      </cc:Work>
    </rdf:RDF>
  </metadata>
  <defs
     id="defs10" />
  <sodipodi:namedview
     pagecolor="#ffffff"
     bordercolor="#666666"
     borderopacity="1"
     objecttolerance="10"
     gridtolerance="10"
     guidetolerance="10"
     inkscape:pageopacity="0"
     inkscape:pageshadow="2"
     inkscape:window-width="1124"
     inkscape:window-height="764"
     id="namedview8"
     showgrid="false"
     inkscape:zoom="5.5807133"
     inkscape:cx="10.074163"
     inkscape:cy="20.229596"
     inkscape:window-x="0"
     inkscape:window-y="0"
     inkscape:window-maximized="0"
     inkscape:current-layer="svg6"
     inkscape:document-rotation="0" />
  <title
     id="title2">Codeforces icon</title>
  <path
     d="m 4.5906524,7.0492849 c 0.828,0 1.5,0.672 1.5,1.5 V 19.049285 c 0,0.828 -0.672,1.5 -1.5,1.5 h -3 c -0.82700004,0 -1.50000004,-0.672 -1.50000004,-1.5 V 8.5492849 c 0,-0.828 0.673,-1.5 1.50000004,-1.5 z m 8.9999996,-4.5 c 0.828,0 1.5,0.672 1.5,1.5 V 19.049285 c 0,0.828 -0.672,1.5 -1.5,1.5 h -3 c -0.8269996,0 -1.4999996,-0.672 -1.4999996,-1.5 V 4.0492849 c 0,-0.828 0.673,-1.5 1.4999996,-1.5 z m 9,7.5000001 c 0.828,0 1.5,0.672 1.5,1.5 v 7.5 c 0,0.828 -0.672,1.5 -1.5,1.5 h -3 c -0.828,0 -1.5,-0.672 -1.5,-1.5 v -7.5 c 0,-0.828 0.672,-1.5 1.5,-1.5 z"
     id="path4"
     inkscape:label="path4"
     style="fill:#1f8acb;fill-opacity:1" />
</svg>
