<?xml version="1.0" encoding="UTF-8" standalone="no"?>
<svg
   xmlns:dc="http://purl.org/dc/elements/1.1/"
   xmlns:cc="http://creativecommons.org/ns#"
   xmlns:rdf="http://www.w3.org/1999/02/22-rdf-syntax-ns#"
   xmlns:svg="http://www.w3.org/2000/svg"
   xmlns="http://www.w3.org/2000/svg"
   xmlns:sodipodi="http://sodipodi.sourceforge.net/DTD/sodipodi-0.dtd"
   xmlns:inkscape="http://www.inkscape.org/namespaces/inkscape"
   role="img"
   viewBox="0 0 24 24"
   version="1.1"
   id="svg6"
   sodipodi:docname="codechef.svg"
   inkscape:version="1.0.1 (3bc2e813f5, 2020-09-07)">
  <metadata
     id="metadata12">
    <rdf:RDF>
      <cc:Work
         rdf:about="">
        <dc:format>image/svg+xml</dc:format>
        <dc:type
           rdf:resource="http://purl.org/dc/dcmitype/StillImage" />
      </cc:Work>
    </rdf:RDF>
  </metadata>
  <defs
     id="defs10" />
  <sodipodi:namedview
     pagecolor="#ffffff"
     bordercolor="#666666"
     borderopacity="1"
     objecttolerance="10"
     gridtolerance="10"
     guidetolerance="10"
     inkscape:pageopacity="0"
     inkscape:pageshadow="2"
     inkscape:window-width="1523"
     inkscape:window-height="980"
     id="namedview8"
     showgrid="false"
     inkscape:zoom="27.631583"
     inkscape:cx="15.63484"
     inkscape:cy="12.306285"
     inkscape:window-x="0"
     inkscape:window-y="0"
     inkscape:window-maximized="0"
     inkscape:current-layer="svg6"
     inkscape:document-rotation="0" />
  <title
     id="title2">CodeChef icon</title>
  <path
     d="m 11.257667,-0.28164777 c -0.37,0.0101 -0.7353,0.041 -1.1003,0.095 -0.5406997,0.0541 -1.0804997,0.3247 -1.6750997,0.5951 -0.757,0.3244 -1.5147,0.64859997 -2.2176,0.70269997 -1.1896,0.3785 -1.568,0.919 -1.8925,1.3516 0,0.054 -0.054,0.1079 -0.054,0.1079 -0.4325,0.865 -0.4873,1.73 -0.325,2.5952 0.1621,0.5407 0.3786,1.0282 0.5408,1.5148 0.3785,1.0274 0.7578,2.0007 0.92,3.1362 0.1622,0.3243998 0.3235,0.7570998 0.4316,1.1896998 0.2704,0.8651 0.542,1.8383 1.353,2.5952 l 0.0057,-0.0028 c 0.0175,0.0183 0.0301,0.0387 0.0482,0.0568 0.0072,-0.0036 0.0141,-0.0063 0.0213,-0.0099 l -0.0213,-0.5849 c 0.6489,-0.9733 1.5673,-1.6221 2.8649997,-1.8925 0.5195,-0.1093 1.081,-0.1497 1.6625,-0.1278 a 8.7733,8.7733 0 0 1 1.7988,0.2357 c 1.4599,0.3785 2.595,1.1358 2.6492,1.7846 0.0273,0.3549 0.0398,0.6952 0.0326,1.0364 -0.001,0.064 -0.0046,0.1285 -0.007,0.193 l 0.1362,0.0682 c 0.075,-0.0375 0.1424,-0.107 0.2059,-0.1902 8e-4,-0.001 0.002,-0.002 0.0028,-0.0028 0.0018,-0.0023 0.0039,-0.0061 0.0057,-0.0085 0.0396,-0.0536 0.0747,-0.1236 0.1107,-0.1931 0.0188,-0.0377 0.0372,-0.0866 0.0554,-0.1292 0.2048,-0.4622 0.362,-1.1536 0.538,-1.9635 0.0541,-0.2703 0.1092,-0.4864 0.1633,-0.7027 0.4326,-0.9733 1.0266,-1.8381998 1.6213,-2.6491998 0.9733,-1.3518 1.8928,-2.5962 1.7846,-4.0561 -1.784,-3.4608 -4.2718,-4.00169997 -5.5695,-4.27199997 -0.2163,-0.0541 -0.3233,-0.0539 -0.4856,-0.108 -1.3382,-0.2433 -2.4945,-0.3953 -3.6046,-0.3648 z m 5.0428,14.37879977 a 9.8602,9.8602 0 0 0 -0.0326,-0.9824 c -0.0541,-0.703 -1.1892,-1.46 -2.7032,-1.8386 -0.588,-0.1336 -1.1764,-0.2142 -1.7448,-0.2356 -0.539,-0.0137 -1.0657,0.0248 -1.5546,0.1277 -1.2435997,0.2704 -2.2161997,0.9193 -2.8109997,1.8925 l 0.0511,1.431 c 0.6672,-0.3558 1.7326,-0.8747 3.1389997,-0.9994 0.0662,-0.0059 0.1368,-0.0059 0.2044,-0.0099 0.1177,-0.013 0.2667,-0.044 0.4444,-0.044 1.6075,0 3.2682,0.5336 4.8767,1.6483 0.039,-0.2744 0.0611,-0.549 0.071,-0.8234 l 0.044,0.0227 c 0.0028,-0.0622 0.0143,-0.1268 0.0156,-0.1888 z m -5.0442,-14.32489977 c 0.1239,-0.0034 0.2538,0.01 0.379,0.0114 -0.23,-0.0022 -0.4588,0.0026 -0.6871,0.0156 0.103,-0.0061 0.2046,-0.0242 0.308,-0.027 z m 0.4983,0.0156 c 0.6552,0.014 1.3255,0.0711 2.0387,0.1803 -0.6834,-0.0987 -1.3646,-0.1671 -2.0387,-0.1803 z m -1.3147,0.0554 c -0.076,0.0087 -0.1527,0.0133 -0.2285,0.0241 -0.8167997,0.1167 -1.7741997,0.7015 -2.7499997,1.045 0.3545,-0.1323 0.7143,-0.2957 1.0747,-0.4501 0.5407,-0.2704 1.1347,-0.5408 1.6212997,-0.5949 0.0939,-0.0139 0.1886,-0.0133 0.2825,-0.0241 z m -0.2285,0.24 c 0.1622,0 0.3787,-2e-4 0.5409,0.0539 -0.1425,-0.0357 -0.2595,-0.026 -0.3706,-0.0142 a 1.174,1.174 0 0 1 0.3166,0.0681 c 0.5796,1.00119997 -0.4264,5.27909997 -0.6786,8.14919997 0.1559,1.0276 0.3138,1.9962998 0.4628,2.7200998 C 9.7795673,9.2760522 9.0757673,6.1393522 8.9676673,3.7063522 c -0.054,-0.9733 10e-4,-1.8386 0.2172,-2.4874 0.2164,-0.64879997 0.5398,-1.08169997 1.0264997,-1.13579997 z m 3.1361,0.271 c -0.811,2.10879997 -0.9184,6.10919997 -0.9725,7.35279997 -0.054,0.5407 -10e-5,1.73 0.054,2.5951998 0,0.2163 0.054,0.4325 0.054,0.6488 0,-0.2163 -0.054,-0.3786 -0.054,-0.5948 -0.4326,-3.2441998 -0.974,-7.1361998 0.9185,-10.00199977 z m 3.352,0.3777 c -0.2704,2.16279997 -1.4047,3.19099997 -1.7832,5.29979997 -0.1081,1.6762 -0.325,3.6222 -0.379,5.2983998 -0.0541,-1.6761998 -7e-4,-3.4600998 0.2697,-5.2443998 0.2703,-1.8384 0.8651,-3.6776 1.8925,-5.35379997 z M 6.3184673,1.1649522 c -0.3581,0.1194 -0.632,0.248 -0.8575,0.3805 0.2317,-0.1358 0.4996,-0.2666 0.8575,-0.3805 z m 0.2101,0.1974 c 0.2155,0.0025 0.4384,0.0734 0.6006,0.2357 -0.0067,-0.004 -0.0078,-0.0033 -0.0142,-0.0071 0.1331,0.0929 0.2666,0.2093 0.3932,0.3847 -0.2036,0.9673 0.2553,3.0317 0.0398,4.6694 0.0763,1.5485 0.0717,3.1804 0.849,4.4593998 -0.9796,-1.5106998 -1.176,-3.4374998 -1.3218,-5.2359998 -0.1128,-1.0907 -0.2035,-2.0969 -0.4642,-2.9033 -0.144,-0.3047 -0.2684,-0.5745 -0.3833,-0.822 -0.0247,-0.0369 -0.0447,-0.0784 -0.071,-0.1135 -0.1082,-0.1082 -0.1619,-0.2696 -0.1619,-0.3777 0,-0.054 0.0539,-0.1618 0.108,-0.1618 0.054,-0.0541 0.1616,-0.0553 0.2157,-0.1094 a 1.013,1.013 0 0 1 0.2101,-0.0184 z m -1.3459,0.6133 c -0.0604,0.0201 -0.0923,0.041 -0.1405,0.061 0.1768,-0.034 0.3617,0.0339 0.5196,0.318 -0.1877,0.8916 0.4364,3.3685 0.4288,5.104 0.3124,1.8478 0.5496,3.8497998 1.5716,5.1151998 -1.1896,-1.3518 -1.6759,-3.7307998 -2.0543,-5.7313998 -0.3246,-1.568 -0.5951,-2.9194 -1.1358,-3.352 -0.054,-0.1081 -0.1079,-0.163 -0.1079,-0.2711 0,-0.1622 -2e-4,-0.3786 0.1079,-0.5949 -0.2772,0.6337 -0.4047,1.2673 -0.3706,1.901 -0.0445,-0.6487 0.0857,-1.2905 0.3706,-1.901 0,-0.054 0.054,-0.0538 0.054,-0.1079 0.012,-0.016 0.0314,-0.0349 0.044,-0.0511 0.0618,-0.0983 0.1308,-0.189 0.2257,-0.257 0.0557,-0.0615 0.0965,-0.1191 0.159,-0.1817 -0.0526,0.0555 -0.0872,0.1092 -0.1335,0.1647 0.0273,-0.018 0.0523,-0.0368 0.0838,-0.0525 0.1081,-0.1082 0.2154,-0.1633 0.3776,-0.1633 z m -0.3776,0.1633 c -0.0038,0.0075 -0.0076,0.0111 -0.0114,0.0184 0.0125,-0.0099 0.0242,-0.0208 0.037,-0.0298 -0.0074,0.0037 -0.0182,0.0077 -0.0256,0.0114 z m 14.7607997,1.1343 c -0.0017,0.0052 -0.004,0.0104 -0.0057,0.0156 0.0378,-0.005 0.0751,-0.0173 0.1135,-0.0156 -0.0378,-0.0022 -0.0763,0.0103 -0.115,0.0199 -0.8634,2.6418 -1.8874,5.2844 -2.9118,7.9261998 a 0.0184,0.0184 0 0 1 -0.0015,0.0028 c -0.0874,0.4652 -0.234,0.8842 -0.5395,1.1898 0.4326,-0.4867 0.4854,-1.1907 0.5395,-2.0558 0.054,-0.8109998 0.0544,-1.6760998 0.487,-2.5412998 0,-0.0531 0.0012,-0.1058 0.0525,-0.159 3e-4,-9e-4 0.0012,-0.0019 0.0015,-0.0028 0.0973,-0.3524 0.202,-0.6885 0.3166,-1.018 0.4183,-1.2896 1.1396,-3.1653 2.0131,-3.3405 0.0163,-0.0052 0.034,-0.018 0.0497,-0.0213 z M 8.3728673,15.925752 l -0.3238,0.1079 c 0.1623,0.2163 0.2696,0.379 0.3777,0.433 0.1081,0.054 0.2168,0.108 0.379,0.108 0.0541,0 0.1618,0 0.2159,-0.054 l 0.812,-0.2698 c 0.0541,0 0.1078,-0.054 0.1619,-0.054 0.1080997,0 0.1615997,0 0.2696997,0.054 l 0.2712,0.2698 0.2697,-0.054 c -0.1081,-0.1622 -0.2695,-0.3236 -0.3776,-0.3776 -0.1082,-0.0541 -0.2169,-0.1094 -0.379,-0.1094 H 9.9415673 l -0.866,0.3252 h -0.1618 c -0.1082,0 -0.2157,0 -0.2698,-0.054 -0.054,-0.054 -0.163,-0.1629 -0.2712,-0.3251 z m -2.5953,0.541 c -0.2703,0.1621 -0.649,0.4324 -1.1897,0.6487 -0.5407,0.2163 -0.9734,0.4325 -1.1897,0.6488 -0.2163,0.2163 -0.3237,0.4326 -0.3237,0.6488 0,0.1082 0.0537,0.1632 0.1618,0.2172 0.054,0.0541 0.1632,0.0539 0.2172,0.108 0.757,0.3244 1.5133,0.7019 2.2162,1.0803 0.1082,0.0541 0.2171,0.1632 0.2712,0.2173 0.054,0.054 0.1078,0.054 0.1618,0.054 0.1082,0 0.2695,-0.0538 0.3777,-0.162 0.1081,-0.108 0.1632,-0.217 0.1632,-0.325 0,-0.1082 -0.055,-0.1618 -0.1632,-0.2158 0,0 -0.4328,-0.2165 -1.1898,-0.541 -0.4866,-0.2162 -0.9179,-0.4326 -1.1883,-0.5948 0.1623,-0.2704 0.486,-0.4865 0.9726,-0.7028 0.5407,-0.2163 0.9196,-0.4326 1.0818,-0.5948 0.054,-0.0541 0.054,-0.1078 0.054,-0.1619 0,-0.054 -0.0539,-0.1631 -0.108,-0.2172 -0.054,-0.054 -0.163,-0.1079 -0.2711,-0.1079 z m 11.2469997,0 c -0.054,0 -0.1618,0.0537 -0.2158,0.1078 -0.0541,0.1081 -0.1093,0.1632 -0.1093,0.2172 v 0.054 c 0.1622,0.1622 0.3797,0.2695 0.7041,0.3776 0.2704,0.054 0.5403,0.1632 0.8107,0.2172 0.3244,0.1082 0.5407,0.2693 0.6488,0.4856 v 0.0553 c 0,0.0541 -0.1088,0.1616 -0.3251,0.2698 -0.1082,0.054 -0.3245,0.2167 -0.5949,0.433 -0.2703,0.1622 -0.4326,0.3236 -0.5948,0.3776 -0.2163,0.1082 -0.3776,0.217 -0.4316,0.3252 -0.0541,0.054 -0.054,0.1077 -0.054,0.1618 0,0.1081 0.0539,0.1077 0.108,0.2158 0.054,0.1081 0.1616,0.1093 0.2157,0.1093 0.054,0 0.1078,-0.0554 0.1619,-0.0554 0.2703,-0.1622 0.6492,-0.3782 1.0818,-0.7567 0.4866,-0.3784 0.8655,-0.6484 1.0818,-0.8106 0.2163,-0.1082 0.3237,-0.2169 0.3237,-0.379 0,-0.0541 2e-4,-0.1618 -0.1079,-0.2159 -0.3785,-0.4325 -0.9185,-0.7022 -1.5674,-0.9185 -0.1081,-0.0541 -0.2704,-0.1092 -0.5948,-0.1633 -0.1622,-0.054 -0.3249,-0.1079 -0.433,-0.1079 z m -2.9743,0.8106 c -0.2704,0 -0.4866,0.055 -0.6488,0.2172 -0.2163,0.1622 -0.2699,0.4323 -0.2158,0.7567 0,0.2703 0.1075,0.4865 0.2697,0.7027 0.1622,0.2163 0.3786,0.3252 0.5949,0.3252 0.1622,0 0.2708,-0.0553 0.433,-0.1094 0.2703,-0.1622 0.379,-0.4319 0.379,-0.9185 0,-0.3785 -0.109,-0.6485 -0.2711,-0.8107 -0.1622,-0.1081 -0.3246,-0.1632 -0.541,-0.1632 z m -4.4876997,0.054 c -0.2704,0 -0.4866,0.055 -0.6488,0.2171 -0.2163,0.1622 -0.27,0.4323 -0.2158,0.7567 0,0.2704 0.1075,0.4865 0.2697,0.7028 0.1622,0.2163 0.3786,0.3251 0.5949,0.3251 0.1622,0 0.2708,-0.0552 0.433,-0.1093 0.2702997,-0.1622 0.3775997,-0.432 0.3775997,-0.9186 0,-0.4325 -0.1075,-0.7025 -0.2697,-0.8106 -0.1621997,-0.1082 -0.3246997,-0.1633 -0.5409997,-0.1633 z m 0,0.6501 c 0.1622,0 0.2711,0.1076 0.2711,0.2698 0,0.1622 -0.163,0.2697 -0.2711,0.2697 -0.1622,0 -0.2698,-0.1075 -0.2698,-0.2697 0,-0.1622 0.1076,-0.2698 0.2698,-0.2698 z m 4.3797997,0.054 c 0.1622,0 0.2711,0.1075 0.2711,0.2697 0,0.1082 -0.109,0.2698 -0.2711,0.2698 -0.1622,0 -0.2698,-0.1076 -0.2698,-0.2698 0,-0.1622 0.1076,-0.2697 0.2698,-0.2697 z m -2.7032,2.1083 0.1619,0.3237 c 0.054,0.1081 0.1076,0.163 0.2158,0.2711 0.054,0.054 0.163,0.1619 0.2712,0.1619 h 0.1078 c 0.1082,0 0.1618,0 0.2158,-0.054 0.0541,-0.054 0.1632,-0.0538 0.2173,-0.1079 l 0.1618,-0.1618 c 0.054,-0.054 0.108,-0.1092 0.108,-0.1633 0.054,-0.054 0.0537,-0.1078 0.1078,-0.1618 0,-0.0541 0.054,-0.108 0.054,-0.108 -0.0541,0.1082 -0.1618,0.2156 -0.2158,0.3238 -0.1082,0.054 -0.1616,0.1632 -0.2698,0.1632 -0.1081,0.0541 -0.217,0.054 -0.3251,0.054 -0.1081,0 -0.2157,10e-5 -0.2697,-0.054 -0.1082,0 -0.1632,-0.0538 -0.2173,-0.1079 l -0.1618,-0.1632 c -0.054,-0.0541 -0.1078,-0.1618 -0.1619,-0.2158 z m -0.866,1.0278 c -1.1354997,0 -1.8376997,1.5136 -3.4597997,0.1619 -0.4326,2.6494 2.7583,2.866 4.1099997,1.7306 0.9192,-0.811 0.6475,-1.9465 -0.6502,-1.8925 z m 2.8664,0 c -1.2977,-0.054 -1.568,1.0815 -0.6488,1.8925 1.3518,1.1355 4.5412,0.9188 4.1087,-1.7306 -1.6221,1.3517 -2.2703,-0.1619 -3.4599,-0.1619 z"
     id="path4"
     style="fill:#5b4638;fill-opacity:1" />
</svg>
