<?xml version="1.0" encoding="UTF-8" standalone="no"?>
<svg
   xmlns:dc="http://purl.org/dc/elements/1.1/"
   xmlns:cc="http://creativecommons.org/ns#"
   xmlns:rdf="http://www.w3.org/1999/02/22-rdf-syntax-ns#"
   xmlns:svg="http://www.w3.org/2000/svg"
   xmlns="http://www.w3.org/2000/svg"
   xmlns:sodipodi="http://sodipodi.sourceforge.net/DTD/sodipodi-0.dtd"
   xmlns:inkscape="http://www.inkscape.org/namespaces/inkscape"
   version="1.1"
   id="svg2"
   xml:space="preserve"
   width="400"
   height="400"
   viewBox="0 0 400 400"
   sodipodi:docname="spoj.svg"
   inkscape:version="1.0.1 (3bc2e813f5, 2020-09-07)"><metadata
     id="metadata8"><rdf:RDF><cc:Work
         rdf:about=""><dc:format>image/svg+xml</dc:format><dc:type
           rdf:resource="http://purl.org/dc/dcmitype/StillImage" /><dc:title></dc:title></cc:Work></rdf:RDF></metadata><defs
     id="defs6" /><sodipodi:namedview
     pagecolor="#ffffff"
     bordercolor="#666666"
     borderopacity="1"
     objecttolerance="10"
     gridtolerance="10"
     guidetolerance="10"
     inkscape:pageopacity="0"
     inkscape:pageshadow="2"
     inkscape:window-width="1428"
     inkscape:window-height="868"
     id="namedview4"
     showgrid="false"
     inkscape:zoom="1.1289751"
     inkscape:cx="227.40625"
     inkscape:cy="250.1907"
     inkscape:window-x="0"
     inkscape:window-y="0"
     inkscape:window-maximized="0"
     inkscape:current-layer="g12" /><g
     id="g10"
     inkscape:groupmode="layer"
     inkscape:label="ink_ext_XXXXXX"
     transform="matrix(1.3333333,0,0,-1.3333333,0,400)"><g
       id="g12"
       transform="matrix(0.12614761,0,0,0.12614761,-28.823553,-41.516406)"
       style="stroke-width:0.792722"><path
         d="m 1318.9036,2506.3345 c -22.06,-5.66 -21,-5.07 -390.99999,-217.3 -160,-91.77 -305.016,-180.68 -323.5,-198.34 -18.762,-17.92 -45.16,-54 -60,-82 l -26.5,-50 v -425 c 0,-422 0.156,-425.3 22.398,-467 35.012,-65.648 79.602,-110.56996 151.602,-152.73396 70.523,-41.301 482.99999,-278.465 565.99999,-325.434 69.48,-39.32 199,-47.129 269,-16.223 89,39.301 651.33,366.168 690,401.082 21.07,19.024 49.81,56.80896 64.5,84.80896 l 26.5,50.5 3,406 c 2.9,392 2.27,407.93 -18.12,462 -38.42,101.82 -73.88,129.27 -428.88,331.99 -178,101.64 -340.22,189.5 -360,194.98 -36,9.97 -150.15,11.62 -185,2.67 z m 354,-358.15 c 54,-16.4 130,-50.6 130,-58.49 0,-8 -78.22,-217.22 -83,-222 -2.8,-2.8 -23,4.14 -46,15.81 -86,43.65 -224.07,61.77 -303,39.77 -59,-16.45 -81.12,-40.51 -81.46,-88.58 -0.44,-63.1 33.46,-91.16 177.46,-146.89 238,-92.11 313.3,-144.63 364.35,-254.11 22.1,-47.37 25.72,-69 26.15,-156 0.48,-96 -1.25,-104.41 -34.74,-170 -41.17,-80.602 -101.76,-132.07796 -194.76,-165.46096 -48,-17.23 -90,-22.508 -210,-26.391 -168,-5.433 -253.14,5.372 -355,45.059 -98.66999,38.445 -97.70999,35.793 -55.5,153.79296 20.04,56 38.53,105.38 41,109.5 2.46,4.11 37.5,-5.2 77.5,-20.6 93,-35.8 204.37,-54.02 284,-46.45 104,9.89 153,47.86 153,118.55 0,59.94 -44,95.23 -190,152.43 -174,68.16 -234.61,100.09 -285,150.14 -65.52,65.09 -87.65,115.43 -92.92999,211.43 -9.29,169 71.56999,290.89 237.92999,358.67 30.75,12.53 83,20.18 165,24.16 131,6.37 191.57,1.01 275,-24.34"
         style="display:inline;fill:#347ab6;fill-opacity:1;fill-rule:nonzero;stroke:none;stroke-width:0.792722"
         id="path14" /></g></g></svg>
